# Blender 4.1.1
# www.blender.org
o Cube
v -1.000000 0.000000 1.000000
v -1.000000 2.000000 1.000000
v -1.000000 0.000000 -1.000000
v -1.000000 2.000000 -1.000000
v 1.000000 0.000000 1.000000
v 1.000000 2.000000 1.000000
v 1.000000 0.000000 -1.000000
v 1.000000 2.000000 -1.000000
vn -1.0000 -0.0000 -0.0000
vn -0.0000 -0.0000 -1.0000
vn 1.0000 -0.0000 -0.0000
vn -0.0000 -0.0000 1.0000
vn -0.0000 -1.0000 -0.0000
vn -0.0000 1.0000 -0.0000
vt 0.663836 0.803154
vt 0.514538 0.952452
vt 0.514538 0.803154
vt 0.199854 0.575345
vt 0.039879 0.735320
vt 0.039879 0.575345
vt 0.431573 0.579451
vt 0.274329 0.736695
vt 0.274329 0.579451
vt 0.440933 0.795942
vt 0.279067 0.957808
vt 0.279067 0.795942
vt 0.658574 0.578070
vt 0.498569 0.738076
vt 0.498569 0.578070
vt 0.196795 0.806946
vt 0.038205 0.951804
vt 0.038205 0.806946
vt 0.663836 0.952452
vt 0.199854 0.735320
vt 0.431573 0.736695
vt 0.440933 0.957808
vt 0.658574 0.738076
vt 0.196795 0.951804
s 0
f 2/1/1 3/2/1 1/3/1
f 4/4/2 7/5/2 3/6/2
f 8/7/3 5/8/3 7/9/3
f 6/10/4 1/11/4 5/12/4
f 7/13/5 1/14/5 3/15/5
f 4/16/6 6/17/6 8/18/6
f 2/1/1 4/19/1 3/2/1
f 4/4/2 8/20/2 7/5/2
f 8/7/3 6/21/3 5/8/3
f 6/10/4 2/22/4 1/11/4
f 7/13/5 5/23/5 1/14/5
f 4/16/6 2/24/6 6/17/6
